<svg xmlns="http://www.w3.org/2000/svg"  viewBox="0 0 100 100" width="100px" height="100px"><path d="M 76.052734 13.935547 A 2.0002 2.0002 0 0 0 75.912109 13.939453 L 24.703125 17.630859 A 2.0002 2.0002 0 0 0 24.59375 17.642578 C 24.59375 17.642578 22.612931 17.892787 20.560547 19.173828 C 18.508162 20.454869 16.239849 22.939329 15.619141 26.919922 C 15.30186 28.952128 15.179609 32.630695 15.101562 37.333984 C 15.023513 42.037274 15.019278 47.64523 15.048828 53.039062 C 15.107668 63.780957 15.297209 73.584227 15.298828 73.667969 C 15.234988 74.062184 14.832721 76.669077 15.359375 79.740234 C 15.643205 81.395387 16.201393 83.180725 17.398438 84.714844 C 18.595481 86.248962 20.510689 87.43789 22.917969 87.697266 C 27.249094 88.163928 39.926055 88.094731 52.533203 87.642578 C 58.836777 87.416503 65.050681 87.084789 70.029297 86.646484 C 72.518605 86.427332 74.696603 86.18206 76.451172 85.902344 C 78.20574 85.622627 79.429111 85.416276 80.564453 84.816406 C 86.620451 81.616655 86.970703 73.890625 86.970703 73.890625 A 2.0002 2.0002 0 0 0 86.976562 73.728516 L 86.871094 24.912109 C 87.033186 22.247074 86.252611 19.695727 84.449219 17.808594 C 82.610852 15.884862 79.915508 14.672217 76.451172 13.974609 A 2.0002 2.0002 0 0 0 76.052734 13.935547 z M 75.847656 17.955078 C 78.685916 18.55621 80.537719 19.503986 81.558594 20.572266 C 82.605977 21.668284 83.016209 22.89862 82.876953 24.767578 A 2.0002 2.0002 0 0 0 82.871094 24.921875 L 82.908203 42.376953 L 76.835938 45.191406 A 1.0001075 1.0001075 0 0 0 77.677734 47.005859 L 82.914062 44.580078 L 82.923828 48.855469 L 73.253906 51.21875 A 1.0002373 1.0002373 0 0 0 73.728516 53.162109 L 82.927734 50.914062 L 82.941406 57.564453 L 71.742188 59.544922 A 1.0001 1.0001 0 1 0 72.091797 61.513672 L 82.945312 59.595703 L 82.962891 67.632812 C 79.548832 68.383269 65.535615 71.398665 58.300781 71.845703 A 1.0001 1.0001 0 1 0 58.423828 73.841797 C 65.73203 73.390225 78.825803 70.594036 82.96875 69.681641 L 82.976562 73.599609 C 82.972669 73.631207 82.577512 76.745594 80.960938 79.142578 L 77.785156 75.230469 A 1.0001 1.0001 0 0 0 77.001953 74.849609 A 1.0001 1.0001 0 0 0 76.232422 76.490234 L 79.611328 80.654297 C 79.327198 80.889345 79.027104 81.105944 78.695312 81.28125 C 78.627403 81.31713 77.422796 81.697654 75.820312 81.953125 C 75.344017 82.029057 74.740555 82.099023 74.179688 82.171875 L 72.476562 78.431641 A 1.0001 1.0001 0 0 0 71.517578 77.833984 A 1.0001 1.0001 0 0 0 70.65625 79.259766 L 72.09375 82.419922 C 71.316176 82.50241 70.546149 82.585657 69.677734 82.662109 C 69.372364 82.688993 69.020413 82.712175 68.705078 82.738281 L 66.082031 78.8125 A 1.0001 1.0001 0 0 0 65.238281 78.357422 A 1.0001 1.0001 0 0 0 64.417969 79.923828 L 66.417969 82.916016 C 64.983943 83.019452 63.490554 83.118035 61.929688 83.207031 L 62.033203 79.847656 A 1.0001 1.0001 0 0 0 61.050781 78.804688 A 1.0001 1.0001 0 0 0 60.035156 79.787109 L 59.927734 83.304688 C 58.533023 83.376994 57.093899 83.43699 55.650391 83.498047 L 56.033203 79.626953 A 1.0001 1.0001 0 0 0 55.023438 78.515625 A 1.0001 1.0001 0 0 0 54.042969 79.429688 L 53.630859 83.587891 C 53.208717 83.604037 52.813983 83.629348 52.390625 83.644531 C 47.779796 83.809897 43.231708 83.893717 38.966797 83.939453 L 40.158203 81.121094 A 1.0001 1.0001 0 0 0 39.228516 79.71875 A 1.0001 1.0001 0 0 0 38.316406 80.341797 L 36.785156 83.960938 C 35.805899 83.967215 34.802941 83.980513 33.890625 83.980469 L 35.236328 79.419922 A 1.0001 1.0001 0 0 0 34.253906 78.123047 A 1.0001 1.0001 0 0 0 33.318359 78.853516 L 31.8125 83.962891 C 30.629333 83.955401 29.403993 83.950953 28.410156 83.931641 L 31.230469 77.90625 A 1.0001 1.0001 0 0 0 30.353516 76.470703 A 1.0001 1.0001 0 0 0 29.417969 77.058594 L 26.228516 83.878906 C 25.008873 83.836609 23.965234 83.785502 23.345703 83.71875 C 23.016617 83.683292 22.733362 83.623093 22.470703 83.550781 L 25.625 80.068359 A 1.0001 1.0001 0 0 0 24.914062 78.386719 A 1.0001 1.0001 0 0 0 24.142578 78.726562 L 20.75 82.470703 C 20.684934 82.396783 20.612841 82.333441 20.550781 82.253906 C 19.933013 81.462181 19.515154 80.303176 19.302734 79.064453 C 18.877895 76.587008 19.273438 74.046875 19.273438 74.046875 A 2.0002 2.0002 0 0 0 19.298828 73.679688 C 19.298828 73.679688 19.274907 72.219475 19.267578 71.814453 C 23.589304 72.405723 39.948058 74.570511 47.917969 74.466797 A 1.0001 1.0001 0 1 0 47.890625 72.466797 C 40.148031 72.567553 22.983888 70.297506 19.234375 69.789062 C 19.205878 68.071463 19.192955 66.404199 19.15625 63.484375 L 22.494141 62.613281 A 1.0001 1.0001 0 0 0 22.255859 60.642578 A 1.0001 1.0001 0 0 0 21.990234 60.677734 L 19.134766 61.421875 C 19.124659 60.539177 19.116616 59.684024 19.107422 58.748047 L 22.138672 57.878906 A 1.0001 1.0001 0 0 0 21.851562 55.914062 A 1.0001 1.0001 0 0 0 21.585938 55.957031 L 19.085938 56.673828 C 19.074824 55.351204 19.056326 54.386269 19.048828 53.017578 C 19.019378 47.640786 19.024362 42.052882 19.101562 37.400391 C 19.116726 36.486559 19.151324 35.818809 19.173828 34.980469 L 23.632812 38.808594 A 1.0001 1.0001 0 1 0 24.935547 37.291016 L 19.25 32.412109 C 19.338493 30.19735 19.444482 28.355571 19.572266 27.537109 C 20.014557 24.700702 21.370869 23.382115 22.677734 22.566406 C 23.978406 21.754563 25.075463 21.614628 25.085938 21.613281 L 32.519531 21.078125 L 35.068359 27.539062 A 1.0004812 1.0004812 0 1 0 36.929688 26.804688 L 34.611328 20.927734 L 47.332031 20.009766 L 46.234375 26.095703 A 1.0001 1.0001 0 1 0 48.201172 26.451172 L 49.392578 19.861328 L 52.201172 19.660156 L 49.525391 28.865234 A 1.0001 1.0001 0 1 0 51.445312 29.423828 L 54.328125 19.505859 L 75.847656 17.955078 z M 69.089844 21.765625 C 68.801909 21.751675 68.518054 21.769039 68.242188 21.816406 C 67.138719 22.005877 66.224707 22.683092 65.609375 23.570312 C 64.378711 25.344755 64.138994 27.95522 65.037109 30.480469 C 65.590278 32.034855 67.147318 32.75231 68.611328 32.755859 C 70.075338 32.759359 71.594034 32.218684 72.828125 31.3125 C 74.062216 30.406316 75.057869 29.05459 75.039062 27.416016 C 75.020252 25.777441 73.947727 24.125679 71.759766 22.707031 C 70.861557 22.124648 69.953647 21.807474 69.089844 21.765625 z M 69.001953 23.761719 C 69.454899 23.782559 70.004458 23.953976 70.671875 24.386719 C 72.532414 25.593071 73.029932 26.64384 73.039062 27.439453 C 73.048163 28.235066 72.53119 29.050106 71.644531 29.701172 C 70.757873 30.352238 69.548787 30.758123 68.615234 30.755859 C 67.681682 30.753559 67.171207 30.511161 66.921875 29.810547 C 66.21599 27.825795 66.506867 25.785246 67.251953 24.710938 C 67.624496 24.173783 68.059577 23.876482 68.580078 23.787109 C 68.710203 23.764767 68.850971 23.754772 69.001953 23.761719 z M 38.201172 33.017578 C 37.817312 32.951297 37.41175 33.114891 37.1875 33.462891 C 36.8895 33.926891 37.024281 34.54475 37.488281 34.84375 C 37.952281 35.14275 38.570141 35.008922 38.869141 34.544922 C 39.168141 34.080922 39.035312 33.461109 38.570312 33.162109 C 38.454313 33.087609 38.329125 33.039672 38.201172 33.017578 z M 51.632812 33.605469 C 51.348894 33.6065 51.06486 33.616548 50.78125 33.634766 C 46.379139 33.917501 41.777479 35.960004 38.146484 39.121094 C 34.51549 42.282184 31.810485 46.68735 31.880859 51.716797 C 32.016333 61.398655 40.176067 71.226987 51.548828 70.25 C 57.223268 69.76258 61.875538 66.754461 65.039062 62.898438 C 68.202589 59.042414 69.980194 54.335816 69.910156 49.988281 C 69.836106 45.429548 67.136366 41.281505 63.533203 38.285156 C 60.155239 35.476079 55.891593 33.590006 51.632812 33.605469 z M 51.039062 37.625 C 54.207299 37.421486 58.036225 38.916177 60.976562 41.361328 C 63.9169 43.806479 65.864156 47.100468 65.912109 50.052734 C 65.963069 53.216199 64.543537 57.194351 61.945312 60.361328 C 59.347088 63.528305 55.672592 65.882045 51.207031 66.265625 C 42.301792 67.030638 35.983432 59.130298 35.878906 51.660156 C 35.829286 48.113604 37.786182 44.737379 40.773438 42.136719 C 43.760692 39.536059 47.734173 37.837264 51.039062 37.625 z M 52.126953 40.416016 A 1.0001 1.0001 0 0 0 51.951172 40.435547 C 51.951172 40.435547 49.173537 40.992574 46.261719 42.507812 C 43.3499 44.023052 40.135773 46.590033 39.617188 50.673828 C 39.120488 54.58527 40.53594 57.762063 42.802734 59.851562 C 45.069529 61.941063 48.133194 63.002337 51.058594 62.994141 C 56.956727 62.977641 62.300942 58.098684 62.427734 51.048828 C 62.506414 46.691228 59.875577 43.920349 57.359375 42.398438 C 54.843173 40.876525 52.326172 40.431641 52.326172 40.431641 A 1.0001 1.0001 0 0 0 52.126953 40.416016 z M 52.154297 42.449219 C 52.417605 42.501389 54.309312 42.890668 56.324219 44.109375 C 58.482766 45.414962 60.492055 47.451272 60.427734 51.013672 C 60.31854 57.085039 55.861828 60.981565 51.052734 60.994141 C 48.624134 61.000941 46.005159 60.083359 44.158203 58.380859 C 42.311247 56.67836 41.179262 54.251339 41.601562 50.925781 C 42.001976 47.772577 44.557615 45.648761 47.185547 44.28125 C 49.654121 42.996665 51.874093 42.509326 52.154297 42.449219 z M 27.3125 44.111328 C 26.928641 44.045047 26.525031 44.208641 26.300781 44.556641 C 26.002781 45.020641 26.137563 45.6385 26.601562 45.9375 C 27.065563 46.2355 27.683422 46.102672 27.982422 45.638672 C 28.280422 45.174672 28.147594 44.554859 27.683594 44.255859 C 27.567594 44.181359 27.440453 44.133422 27.3125 44.111328 z M 55.693359 46.753906 C 55.3095 46.687625 54.905891 46.849266 54.681641 47.197266 C 54.383641 47.661266 54.516469 48.281078 54.980469 48.580078 C 55.444469 48.878078 56.064281 48.743297 56.363281 48.279297 C 56.661281 47.815297 56.5265 47.196437 56.0625 46.898438 C 55.9465 46.823937 55.821313 46.776 55.693359 46.753906 z M 48.074219 49.261719 C 47.690359 49.195438 47.284797 49.357078 47.060547 49.705078 C 46.762547 50.169078 46.897328 50.788891 47.361328 51.087891 C 47.825328 51.386891 48.443188 51.251109 48.742188 50.787109 C 49.041188 50.323109 48.907359 49.70525 48.443359 49.40625 C 48.327359 49.33175 48.202172 49.283812 48.074219 49.261719 z M 49.662109 56.113281 C 49.27825 56.047 48.872687 56.210594 48.648438 56.558594 C 48.350437 57.022594 48.485219 57.641453 48.949219 57.939453 C 49.413219 58.237453 50.031078 58.104625 50.330078 57.640625 C 50.629078 57.176625 50.49525 56.556812 50.03125 56.257812 C 49.91525 56.183312 49.790062 56.135375 49.662109 56.113281 z"/></svg>